<svg xmlns="http://www.w3.org/2000/svg"
xmlns:xlink="http://www.w3.org/1999/xlink"
>
  <title>Aristotle expanded ISO/IEC 11179 model</title>
   <style type="text/css" >
      <![CDATA[
 
        rect.mext {
           fill:   #FFAEB9;
           stroke: #000;
        }
        rect.tosn {
           fill:   #B0E0E6;
           stroke: #000;
        }
        text.tosn, text.mext {
           text-anchor: middle;
           max-width:130px;
           font-sizde:10px;
        }
        path { stroke-width:3px }
        line { stroke-width:3px; stroke-dasharray:10,10; }
 
      ]]>
    </style>

   <g transform="translate(0,0)"><!-- 2nd Row -->
       <a xlink:href="/about/11179#dss" target="_parent" xlink:title="Data Set Specification"
    transform="translate(120,0)">
        <rect x="0" y="0" class="tosn" width="140" height="60" rx="4" ry="4"/>
        <text x="70" y="25" class="tosn">Data Set</text>
        <text x="70" y="45" class="tosn">Specification</text>
       </a>
       <path d="M190 60 V 90" fill="transparent" stroke="black"/>

       <a xlink:href="/about/11179#is" target="_parent" xlink:title="Indicator Set"
    transform="translate(360,0)">
        <rect x="0" y="0" class="mext" width="140" height="60" rx="4" ry="4"/>
        <text x="70" y="25" class="mext">Indicator</text>
        <text x="70" y="45" class="mext">Set</text>
       </a>
       <path d="M430 60 V 90" fill="transparent" stroke="black"/>

       <a xlink:href="/about/11179#oa" target="_parent" xlink:title="Outcome Area"
    transform="translate(530,70)">
        <rect x="0" y="0" class="mext" width="100" height="50" rx="4" ry="4"/>
        <text x="50" y="20" class="mext">Outcome</text>
        <text x="50" y="40" class="mext">Area</text>
       </a>
       <path d="M500 105 H 530" fill="transparent" stroke="black"/>
   </g>
   <g transform="translate(0,90)"><!-- 2nd Row -->
       <a xlink:href="/about/11179#de" target="_parent" xlink:title="Data Element"
    transform="translate(120,0)">
        <rect x="0" y="0" class="tosn" width="140" height="60" rx="4" ry="4"/>
        <text x="70" y="25" class="tosn">Data</text>
        <text x="70" y="45" class="tosn">Element</text>
       </a>
       <path d="M190 60 V 85" fill="transparent" stroke="black"/>
       <path d="M105 125 V 85 H 270 V 125" fill="transparent" stroke="black"/>
       <path d="M260 30 H 360" fill="transparent" stroke="black"/>


       <a xlink:href="/about/11179#ind" target="_parent" xlink:title="Indicator"
    transform="translate(360,0)">
        <rect x="0" y="0" class="mext" width="140" height="60" rx="4" ry="4"/>
        <text x="70" y="35" class="mext">Indicator</text>
       </a>
       <path d="M500 45 H 580 V 110" fill="transparent" stroke="black"/>
       <path d="M380 60 V 235 H400" fill="transparent" stroke="black"/>

       <line x1="360" y1="15" x2="260" y2="-60" stroke="black"/>
   </g>
   <g transform="translate(0,200)"><!-- 3rd Row -->
       <a xlink:href="/about/11179#dec" target="_parent" xlink:title="Data Element Concept"
    transform="translate(55,0)">
        <rect x="0" y="0" class="tosn" width="100" height="50" rx="4" ry="4"/>
        <text x="50" y="20" class="tosn">Data Element</text>
        <text x="50" y="40" class="tosn">Concept</text>
       </a>
       <a xlink:href="/about/11179#vd" target="_parent" xlink:title="Value Domain"
    transform="translate(220,0)">
        <rect x="0" y="0" class="tosn" width="100" height="50" rx="4" ry="4"/>
        <text x="50" y="20" class="tosn">Value</text>
        <text x="50" y="40" class="tosn">Domain</text>
       </a>
       <path d="M105 50 V 75" fill="transparent" stroke="black"/>
       <path d="M50 100 V 75 H 160 V 105" fill="transparent" stroke="black"/>
       <path d="M270 50 V 105" fill="transparent" stroke="black"/>

       <a xlink:href="/about/11179#ds" target="_parent" xlink:title="Data Source"
    transform="translate(400,0)">
        <rect x="0" y="0" class="mext" width="100" height="50" rx="4" ry="4"/>
        <text x="50" y="20" class="mext">Data</text>
        <text x="50" y="40" class="mext">Source</text>
       </a>
       <a xlink:href="/about/11179#qs" target="_parent" xlink:title="Quality Statement"
    transform="translate(530,0)">
        <rect x="0" y="0" class="mext" width="100" height="50" rx="4" ry="4"/>
        <text x="50" y="20" class="mext">Quality</text>
        <text x="50" y="40" class="mext">Statement</text>
       </a>
       <path d="M500 25 H 530" fill="transparent" stroke="black"/>
   </g>
   <g transform="translate(0,300)"><!-- 4th Row -->
       <a xlink:href="/about/11179#oc" target="_parent" xlink:title="Object Class"
    transform="translate(0,0)">
        <rect x="0" y="0" class="tosn" width="100" height="50" rx="4" ry="4"/>
        <text x="50" y="20" class="tosn">Object</text>
        <text x="50" y="40" class="tosn">Class</text>
       </a>
       <a xlink:href="/about/11179#prop" target="_parent" xlink:title="Property"
    transform="translate(110,0)">
        <rect x="0" y="0" class="tosn" width="100" height="50" rx="4" ry="4"/>
        <text x="50" y="30" class="tosn">Property</text>
       </a>
       <a xlink:href="/about/11179#cs" target="_parent" xlink:title="Classification Scheme"
    transform="translate(220,0)">
        <rect x="0" y="0" class="tosn" width="100" height="50" rx="4" ry="4"/>
        <text x="50" y="20" class="tosn">Classification</text>
        <text x="50" y="40" class="tosn">Scheme</text>
       </a>

       <a xlink:href="/about/11179#fr" target="_parent" xlink:title="Framework"
    transform="translate(400,0)">
        <rect x="0" y="0" class="mext" width="100" height="50" rx="4" ry="4"/>
        <text x="50" y="30" class="mext">Framework</text>
       </a>
   </g>
 
</svg>

